<svg width="208" height="138" viewBox="0 0 208 138" fill="none" xmlns="http://www.w3.org/2000/svg">
<g filter="url(#filter0_d_26_276)">
<path d="M11.9178 95.8213C12.9732 94.7659 17.763 89.362 17.9865 89.1896C21.4166 89.1896 21.9443 89.1896 26.1659 89.1896H37.2478C37.7755 89.1896 38.42 89.1896 38.8309 89.1896C39.3587 89.1896 39.9865 89.1902 40.3131 89.1896H143.231C144.793 89.1865 146.29 88.1042 147.395 86.1801C148.499 84.256 149.12 81.6472 149.122 78.9261V14.2635C149.12 11.5424 148.499 8.93359 147.395 7.00947C146.29 5.08536 144.793 4.00305 143.231 4H9.89313C8.33128 4.00305 6.83392 5.08536 5.72953 7.00947C4.62514 8.93359 4.00392 11.5424 4.00217 14.2635V78.9261C4.00392 81.6472 4.00217 83.9479 4.00217 86.3226C4.00217 89.5381 4.00217 94.2382 4.00217 96.349V98.7237C4.00217 100.307 4.52988 100.571 5.05758 100.835C5.58529 101.098 6.11301 101.098 6.64072 100.835L7.43228 100.307C7.95999 99.7791 8.09488 99.6442 8.75155 98.9876C9.27926 98.4599 9.80696 97.9322 10.3347 97.4044C10.8624 96.8767 11.3901 96.349 11.9178 95.8213Z" fill="#DCDCDD" fill-opacity="0.86" shape-rendering="crispEdges"/>
</g>
<path d="M6.61739 100.951C6.9235 100.951 7.22563 100.882 7.50169 100.749C7.77774 100.617 8.02073 100.425 8.21289 100.187L16.9653 89.4888H144.901C146.16 89.4874 147.367 88.9865 148.257 88.0962C149.148 87.2058 149.648 85.9986 149.65 84.7394V8.74938C149.648 7.49021 149.148 6.28301 148.257 5.39264C147.367 4.50227 146.16 4.00144 144.901 4H9.27939C8.02021 4.00144 6.81302 4.50227 5.92265 5.39264C5.03228 6.28301 4.53145 7.49021 4.53001 8.74938V98.8716C4.52677 99.3006 4.65794 99.7199 4.90508 100.071C5.15222 100.421 5.50293 100.686 5.90803 100.827C6.13559 100.909 6.37556 100.951 6.61739 100.951ZM144.901 5.05543C145.88 5.05653 146.819 5.44607 147.511 6.13858C148.204 6.8311 148.593 7.77003 148.594 8.7494V84.7395C148.593 85.7188 148.204 86.6578 147.511 87.3503C146.819 88.0428 145.88 88.4323 144.901 88.4334H16.4652L7.39607 99.5181C7.26273 99.6811 7.08228 99.7988 6.87941 99.8552C6.67655 99.9115 6.46122 99.9038 6.26294 99.833C6.06465 99.7622 5.89311 99.6318 5.77182 99.4597C5.65053 99.2876 5.58541 99.0822 5.58542 98.8716V8.7494C5.58652 7.77003 5.97606 6.8311 6.66857 6.13858C7.36109 5.44607 8.30002 5.05653 9.27939 5.05543H144.901Z" fill="white" stroke="white" stroke-width="7"/>
<g filter="url(#filter1_d_26_276)">
<path d="M196.087 124.318C195.031 123.262 190.241 117.858 190.018 117.686C186.588 117.686 186.06 117.686 181.838 117.686H170.757C170.229 117.686 169.584 117.686 169.173 117.686C168.646 117.686 168.018 117.687 167.691 117.686H64.7733C63.2114 117.683 61.7141 116.601 60.6097 114.676C59.5053 112.752 58.8841 110.144 58.8823 107.422V42.7598C58.8841 40.0387 59.5053 37.4299 60.6097 35.5058C61.7141 33.5817 63.2114 32.4994 64.7733 32.4963H198.111C199.673 32.4994 201.17 33.5817 202.275 35.5058C203.379 37.4299 204 40.0387 204.002 42.7598V107.422C204 110.144 204.002 112.444 204.002 114.819C204.002 118.034 204.002 122.735 204.002 124.845V127.22C204.002 128.803 203.475 129.067 202.947 129.331C202.419 129.595 201.891 129.595 201.364 129.331L200.572 128.803C200.044 128.275 199.91 128.141 199.253 127.484C198.725 126.956 198.197 126.428 197.67 125.901C197.142 125.373 196.614 124.845 196.087 124.318Z" fill="#4695E4"/>
</g>
<path d="M201.387 129.447C201.081 129.447 200.779 129.378 200.503 129.246C200.227 129.113 199.984 128.921 199.792 128.683L191.039 117.985H63.1039C61.8447 117.984 60.6375 117.483 59.7471 116.592C58.8568 115.702 58.3559 114.495 58.3545 113.236V37.2457C58.3559 35.9865 58.8568 34.7794 59.7471 33.889C60.6375 32.9986 61.8447 32.4978 63.1039 32.4963H198.725C199.984 32.4978 201.191 32.9986 202.082 33.889C202.972 34.7794 203.473 35.9865 203.474 37.2457V127.368C203.478 127.797 203.346 128.216 203.099 128.567C202.852 128.918 202.501 129.182 202.096 129.323C201.869 129.405 201.629 129.447 201.387 129.447ZM63.1039 33.5518C62.1245 33.5529 61.1856 33.9424 60.4931 34.6349C59.8005 35.3274 59.411 36.2664 59.4099 37.2457V113.236C59.411 114.215 59.8005 115.154 60.4931 115.847C61.1856 116.539 62.1245 116.929 63.1039 116.93H191.539L200.608 128.014C200.742 128.177 200.922 128.295 201.125 128.352C201.328 128.408 201.543 128.4 201.741 128.329C201.94 128.259 202.111 128.128 202.233 127.956C202.354 127.784 202.419 127.579 202.419 127.368V37.2457C202.418 36.2664 202.028 35.3274 201.336 34.6349C200.643 33.9424 199.704 33.5529 198.725 33.5518H63.1039Z" fill="white" stroke="white" stroke-width="7"/>
<path d="M131.25 81.1867C135.078 81.1867 138.181 78.0837 138.181 74.256C138.181 70.4282 135.078 67.3252 131.25 67.3252C127.422 67.3252 124.319 70.4282 124.319 74.256C124.319 78.0837 127.422 81.1867 131.25 81.1867Z" fill="white"/>
<path d="M160.274 81.1867C164.102 81.1867 167.205 78.0837 167.205 74.256C167.205 70.4282 164.102 67.3252 160.274 67.3252C156.446 67.3252 153.343 70.4282 153.343 74.256C153.343 78.0837 156.446 81.1867 160.274 81.1867Z" fill="white"/>
<path d="M102.226 81.1867C106.053 81.1867 109.156 78.0837 109.156 74.256C109.156 70.4282 106.053 67.3252 102.226 67.3252C98.3979 67.3252 95.2949 70.4282 95.2949 74.256C95.2949 78.0837 98.3979 81.1867 102.226 81.1867Z" fill="white"/>
<defs>
<filter id="filter0_d_26_276" x="0.00195312" y="4" width="153.12" height="105.032" filterUnits="userSpaceOnUse" color-interpolation-filters="sRGB">
<feFlood flood-opacity="0" result="BackgroundImageFix"/>
<feColorMatrix in="SourceAlpha" type="matrix" values="0 0 0 0 0 0 0 0 0 0 0 0 0 0 0 0 0 0 127 0" result="hardAlpha"/>
<feOffset dy="4"/>
<feGaussianBlur stdDeviation="2"/>
<feComposite in2="hardAlpha" operator="out"/>
<feColorMatrix type="matrix" values="0 0 0 0 0 0 0 0 0 0 0 0 0 0 0 0 0 0 0.25 0"/>
<feBlend mode="normal" in2="BackgroundImageFix" result="effect1_dropShadow_26_276"/>
<feBlend mode="normal" in="SourceGraphic" in2="effect1_dropShadow_26_276" result="shape"/>
</filter>
<filter id="filter1_d_26_276" x="54.8823" y="32.4963" width="153.12" height="105.032" filterUnits="userSpaceOnUse" color-interpolation-filters="sRGB">
<feFlood flood-opacity="0" result="BackgroundImageFix"/>
<feColorMatrix in="SourceAlpha" type="matrix" values="0 0 0 0 0 0 0 0 0 0 0 0 0 0 0 0 0 0 127 0" result="hardAlpha"/>
<feOffset dy="4"/>
<feGaussianBlur stdDeviation="2"/>
<feComposite in2="hardAlpha" operator="out"/>
<feColorMatrix type="matrix" values="0 0 0 0 0 0 0 0 0 0 0 0 0 0 0 0 0 0 0.25 0"/>
<feBlend mode="normal" in2="BackgroundImageFix" result="effect1_dropShadow_26_276"/>
<feBlend mode="normal" in="SourceGraphic" in2="effect1_dropShadow_26_276" result="shape"/>
</filter>
</defs>
</svg>
