<svg width="110" height="110" viewBox="0 0 110 110" fill="none" xmlns="http://www.w3.org/2000/svg">
<circle cx="55" cy="55" r="55" fill="#F7F7F7"/>
<g filter="url(#filter0_d_29_11)">
<path d="M18.1663 67.7284C18.5885 67.3063 20.5044 65.1447 20.5937 65.0757C21.9658 65.0757 22.1769 65.0757 23.8655 65.0757H28.2983C28.5094 65.0757 28.7671 65.0757 28.9315 65.0757C29.1426 65.0757 29.3937 65.076 29.5244 65.0757H70.6915C71.3162 65.0745 71.9152 64.6416 72.3569 63.8719C72.7987 63.1023 73.0472 62.0588 73.0479 60.9703V35.1054C73.0472 34.0169 72.7987 32.9734 72.3569 32.2038C71.9152 31.4341 71.3162 31.0012 70.6915 31H17.3564C16.7317 31.0012 16.1327 31.4341 15.691 32.2038C15.2492 32.9734 15.0008 34.0169 15.0001 35.1054V60.9704C15.0008 62.0588 15.0001 62.9791 15.0001 63.9289C15.0001 65.2151 15.0001 67.0952 15.0001 67.9395V68.8894C15.0001 69.5226 15.2111 69.6282 15.4222 69.7337C15.6333 69.8393 15.8444 69.8393 16.0555 69.7337L16.3721 69.5226C16.5832 69.3116 16.6371 69.2576 16.8998 68.9949C17.1109 68.7838 17.322 68.5728 17.533 68.3617C17.7441 68.1506 17.9552 67.9395 18.1663 67.7284Z" fill="#DCDCDD" fill-opacity="0.86" shape-rendering="crispEdges"/>
</g>
<path d="M16.0464 69.7803C16.1689 69.7801 16.2897 69.7526 16.4001 69.6996C16.5106 69.6467 16.6078 69.5698 16.6846 69.4745L20.1856 65.1954H71.3595C71.8632 65.1949 72.3461 64.9945 72.7022 64.6384C73.0584 64.2822 73.2587 63.7993 73.2593 63.2957V32.8997C73.2587 32.3961 73.0584 31.9132 72.7022 31.5571C72.3461 31.2009 71.8632 31.0006 71.3595 31H17.1112C16.6076 31.0006 16.1247 31.2009 15.7685 31.5571C15.4124 31.9132 15.2121 32.3961 15.2115 32.8997V68.9486C15.2102 69.1201 15.2626 69.2878 15.3615 69.4281C15.4604 69.5684 15.6006 69.6742 15.7627 69.7306C15.8537 69.7634 15.9497 69.7802 16.0464 69.7803ZM71.3595 31.4222C71.7513 31.4226 72.1268 31.5784 72.4039 31.8554C72.6809 32.1324 72.8367 32.508 72.8371 32.8998V63.2957C72.8367 63.6874 72.6809 64.063 72.4039 64.34C72.1268 64.617 71.7513 64.7728 71.3595 64.7733H19.9855L16.3579 69.2071C16.3046 69.2723 16.2324 69.3194 16.1512 69.342C16.0701 69.3645 15.984 69.3614 15.9046 69.3331C15.8253 69.3048 15.7567 69.2526 15.7082 69.1838C15.6597 69.1149 15.6336 69.0328 15.6336 68.9486V32.8998C15.6341 32.508 15.7899 32.1324 16.0669 31.8554C16.3439 31.5784 16.7195 31.4226 17.1112 31.4222H71.3595Z" fill="white" stroke="white" stroke-width="3"/>
<g filter="url(#filter1_d_29_11)">
<path d="M91.8337 79.1269C91.4115 78.7047 89.4956 76.5431 89.4063 76.4742C88.0342 76.4742 87.8231 76.4742 86.1345 76.4742H81.7017C81.4906 76.4742 81.2329 76.4742 81.0685 76.4742C80.8574 76.4742 80.6063 76.4744 80.4756 76.4742H39.3085C38.6838 76.4729 38.0848 76.04 37.6431 75.2704C37.2013 74.5007 36.9528 73.4572 36.9521 72.3688V46.5038C36.9528 45.4154 37.2013 44.3719 37.6431 43.6022C38.0848 42.8326 38.6838 42.3997 39.3085 42.3984H92.6436C93.2683 42.3997 93.8673 42.8326 94.309 43.6022C94.7508 44.3719 94.9992 45.4154 94.9999 46.5038V72.3688C94.9992 73.4572 94.9999 74.3775 94.9999 75.3274C94.9999 76.6136 94.9999 78.4936 94.9999 79.338V80.2878C94.9999 80.9211 94.7889 81.0266 94.5778 81.1322C94.3667 81.2377 94.1556 81.2377 93.9445 81.1322L93.6279 80.9211C93.4168 80.71 93.3629 80.656 93.1002 80.3934C92.8891 80.1823 92.678 79.9712 92.467 79.7601C92.2559 79.549 92.0448 79.338 91.8337 79.1269Z" fill="#4695E4"/>
</g>
<path d="M93.9536 81.1787C93.8311 81.1786 93.7103 81.151 93.5999 81.0981C93.4894 81.0452 93.3922 80.9683 93.3154 80.8729L89.8144 76.5939H38.6405C38.1368 76.5933 37.6539 76.393 37.2978 76.0368C36.9416 75.6807 36.7413 75.1978 36.7407 74.6941V44.2982C36.7413 43.7945 36.9416 43.3116 37.2978 42.9555C37.6539 42.5993 38.1368 42.399 38.6405 42.3984H92.8888C93.3924 42.399 93.8753 42.5993 94.2315 42.9555C94.5876 43.3116 94.788 43.7945 94.7885 44.2982V80.347C94.7898 80.5186 94.7374 80.6863 94.6385 80.8265C94.5396 80.9668 94.3994 81.0726 94.2373 81.1291C94.1463 81.1618 94.0503 81.1786 93.9536 81.1787ZM38.6405 42.8206C38.2487 42.821 37.8732 42.9769 37.5961 43.2539C37.3191 43.5309 37.1633 43.9064 37.1629 44.2982V74.6941C37.1633 75.0859 37.3191 75.4614 37.5961 75.7385C37.8732 76.0155 38.2487 76.1713 38.6405 76.1717H90.0145L93.6421 80.6056C93.6954 80.6708 93.7676 80.7179 93.8488 80.7404C93.9299 80.7629 94.016 80.7598 94.0954 80.7315C94.1747 80.7032 94.2433 80.651 94.2918 80.5822C94.3403 80.5134 94.3664 80.4312 94.3664 80.347V44.2982C94.3659 43.9064 94.2101 43.5309 93.9331 43.2539C93.6561 42.9769 93.2805 42.821 92.8888 42.8206H38.6405Z" fill="white" stroke="white" stroke-width="3"/>
<path d="M65.8988 61.8747C67.4299 61.8747 68.6711 60.6335 68.6711 59.1024C68.6711 57.5713 67.4299 56.3301 65.8988 56.3301C64.3677 56.3301 63.1265 57.5713 63.1265 59.1024C63.1265 60.6335 64.3677 61.8747 65.8988 61.8747Z" fill="white"/>
<path d="M77.5086 61.8747C79.0397 61.8747 80.2809 60.6335 80.2809 59.1024C80.2809 57.5713 79.0397 56.3301 77.5086 56.3301C75.9775 56.3301 74.7363 57.5713 74.7363 59.1024C74.7363 60.6335 75.9775 61.8747 77.5086 61.8747Z" fill="white"/>
<path d="M54.2899 61.8747C55.821 61.8747 57.0622 60.6335 57.0622 59.1024C57.0622 57.5713 55.821 56.3301 54.2899 56.3301C52.7588 56.3301 51.5176 57.5713 51.5176 59.1024C51.5176 60.6335 52.7588 61.8747 54.2899 61.8747Z" fill="white"/>
<defs>
<filter id="filter0_d_29_11" x="11" y="31" width="66.0479" height="46.813" filterUnits="userSpaceOnUse" color-interpolation-filters="sRGB">
<feFlood flood-opacity="0" result="BackgroundImageFix"/>
<feColorMatrix in="SourceAlpha" type="matrix" values="0 0 0 0 0 0 0 0 0 0 0 0 0 0 0 0 0 0 127 0" result="hardAlpha"/>
<feOffset dy="4"/>
<feGaussianBlur stdDeviation="2"/>
<feComposite in2="hardAlpha" operator="out"/>
<feColorMatrix type="matrix" values="0 0 0 0 0 0 0 0 0 0 0 0 0 0 0 0 0 0 0.25 0"/>
<feBlend mode="normal" in2="BackgroundImageFix" result="effect1_dropShadow_29_11"/>
<feBlend mode="normal" in="SourceGraphic" in2="effect1_dropShadow_29_11" result="shape"/>
</filter>
<filter id="filter1_d_29_11" x="32.9521" y="42.3984" width="66.0479" height="46.813" filterUnits="userSpaceOnUse" color-interpolation-filters="sRGB">
<feFlood flood-opacity="0" result="BackgroundImageFix"/>
<feColorMatrix in="SourceAlpha" type="matrix" values="0 0 0 0 0 0 0 0 0 0 0 0 0 0 0 0 0 0 127 0" result="hardAlpha"/>
<feOffset dy="4"/>
<feGaussianBlur stdDeviation="2"/>
<feComposite in2="hardAlpha" operator="out"/>
<feColorMatrix type="matrix" values="0 0 0 0 0 0 0 0 0 0 0 0 0 0 0 0 0 0 0.25 0"/>
<feBlend mode="normal" in2="BackgroundImageFix" result="effect1_dropShadow_29_11"/>
<feBlend mode="normal" in="SourceGraphic" in2="effect1_dropShadow_29_11" result="shape"/>
</filter>
</defs>
</svg>
