<svg width="17" height="14" viewBox="0 0 17 14" fill="none" xmlns="http://www.w3.org/2000/svg">
<mask id="mask0_501_11" style="mask-type:luminance" maskUnits="userSpaceOnUse" x="0" y="0" width="17" height="14">
<path d="M7.54928 12.1567C7.92161 12.529 7.92702 13.1272 7.55562 13.4986C7.1868 13.8674 6.59344 13.872 6.21607 13.4946L0.280642 7.55926C-0.090346 7.18826 -0.0967351 6.59316 0.280642 6.21578L6.21607 0.280359C6.58706 -0.0906257 7.18423 -0.0949512 7.55562 0.27644C7.92445 0.645272 7.92572 1.242 7.54928 1.61842L3.22463 5.94308H16.0532C16.5761 5.94308 17 6.36228 17 6.88751C17 7.40912 16.5726 7.83195 16.0532 7.83195H3.22463L7.54928 12.1567Z" fill="white"/>
</mask>
<g mask="url(#mask0_501_11)">
<path d="M16.9999 -1.61279H0V15.3871H16.9999V-1.61279Z" fill="white"/>
</g>
</svg>
