<svg width="17" height="17" viewBox="0 0 17 17" fill="none" xmlns="http://www.w3.org/2000/svg">
<path d="M9.70639 8.50012L16.7487 1.45724C17.0822 1.12373 17.0822 0.583635 16.7487 0.250129C16.4153 -0.0833764 15.8752 -0.0833764 15.5417 0.250129L8.49944 7.29302L1.45714 0.250129C1.12366 -0.0833764 0.583586 -0.0833764 0.250108 0.250129C-0.0833693 0.583635 -0.0833693 1.12373 0.250108 1.45724L7.2924 8.50012L0.250108 15.543C-0.0833693 15.8765 -0.0833693 16.4167 0.250108 16.7501C0.416847 16.9169 0.635392 16.9999 0.853917 16.9999C1.07244 16.9999 1.29095 16.9169 1.45769 16.7501L8.49999 9.70729L15.5423 16.7501C15.709 16.9169 15.9275 16.9999 16.1461 16.9999C16.3646 16.9999 16.5831 16.9169 16.7499 16.7501C17.0834 16.4167 17.0834 15.8765 16.7499 15.543L9.70639 8.50012Z" fill="#333333"/>
</svg>
